<svg xmlns="http://www.w3.org/2000/svg" xmlns:xlink="http://www.w3.org/1999/xlink" viewBox="0 0 374 67.54"><defs><style>.cls-1{isolation:isolate;}.cls-2{fill:#4a78f2;}.cls-3,.cls-4,.cls-5,.cls-6{opacity:0.3;mix-blend-mode:multiply;}.cls-3{fill:url(#linear-gradient);}.cls-4{fill:url(#linear-gradient-2);}.cls-5{fill:url(#linear-gradient-3);}.cls-6{fill:url(#linear-gradient-4);}</style><linearGradient id="linear-gradient" x1="-25.1" y1="-191.21" x2="-9.91" y2="-191.21" gradientTransform="translate(67.33 253.67)" gradientUnits="userSpaceOnUse"><stop offset="0" stop-color="#fff"/><stop offset="1"/></linearGradient><linearGradient id="linear-gradient-2" x1="-25.1" y1="-248.62" x2="-9.91" y2="-248.62" xlink:href="#linear-gradient"/><linearGradient id="linear-gradient-3" x1="5.05" y1="23.03" x2="5.05" y2="10.1" gradientTransform="matrix(1, 0, 0, 1, 0, 0)" xlink:href="#linear-gradient"/><linearGradient id="linear-gradient-4" x1="5.05" y1="44.48" x2="5.05" y2="57.4" gradientTransform="matrix(1, 0, 0, 1, 0, 0)" xlink:href="#linear-gradient"/></defs><title>Checkbook_logo_white</title><g class="cls-1"><g id="Layer_40" data-name="Layer 40"><polygon class="cls-2" points="10.12 0.02 10.12 67.54 0 57.42 0 10.13 0.01 10.13 10.12 0.02"/><path class="cls-2" d="M49.3,22.86v3.42A3.34,3.34,0,0,1,46,29.64H19V19.58H46A3.24,3.24,0,0,1,47.6,20,3.29,3.29,0,0,1,49.3,22.86Z"/><path class="cls-2" d="M49.3,40.47v3.42A3.29,3.29,0,0,1,46,47.19H19V37.13H46A3.32,3.32,0,0,1,49.3,40.47Z"/><polygon class="cls-2" points="67.52 10.07 0 10.07 10.12 0.01 57.41 0.01 62.48 5.05 67.52 10.07"/><polygon class="cls-2" points="67.52 57.43 67.52 57.44 57.42 67.53 57.42 67.51 57.41 67.49 10.12 67.49 10.12 67.52 0 57.43 67.52 57.43"/><polygon class="cls-2" points="67.59 44.45 67.59 57.42 67.55 57.43 67.53 57.43 57.4 67.53 57.35 67.53 57.35 67.53 57.35 67.54 57.35 44.45 67.59 44.45"/><polygon class="cls-2" points="67.59 10.12 67.59 23.05 57.35 23.05 57.35 0 62.48 5.07 67.59 10.12"/><g id="Group-3-Copy"><path id="Fill-2" class="cls-2" d="M136.74,22.31l-4.51,4.51c-3-3.38-6.53-5.07-10.38-5.07a10.9,10.9,0,0,0-8.17,3.47,11.91,11.91,0,0,0-3.34,8.55,13,13,0,0,0,1.46,6.29A10.93,10.93,0,0,0,116,44.38a11.73,11.73,0,0,0,6,1.55,12.1,12.1,0,0,0,5.12-1.08,19.18,19.18,0,0,0,5.12-4l4.37,4.74a24.3,24.3,0,0,1-7.09,5.31,18.45,18.45,0,0,1-7.61,1.46A17.13,17.13,0,0,1,109,47.15a18.55,18.55,0,0,1-5-13.38,18.67,18.67,0,0,1,2.3-9.39,17.39,17.39,0,0,1,6.57-6.62A17.66,17.66,0,0,1,122,15.27a18.16,18.16,0,0,1,8.08,1.87,17.63,17.63,0,0,1,6.62,5.17"/><path id="Fill-3" class="cls-2" d="M141.72,15.17H148V27.9a14.11,14.11,0,0,1,3.71-2.49,9,9,0,0,1,3.76-.85,8.22,8.22,0,0,1,6.29,2.73c1.46,1.55,2.21,3.85,2.21,6.86V51.43h-6.2V40a29,29,0,0,0-.42-6.15,4.32,4.32,0,0,0-1.41-2.4,4,4,0,0,0-2.49-.8,4.53,4.53,0,0,0-3.29,1.32,7,7,0,0,0-1.88,3.61A31.83,31.83,0,0,0,148,41V51.48h-6.24V15.17"/><path id="Fill-4" class="cls-2" d="M195.11,40.3H174.92a6.89,6.89,0,0,0,2.35,4.41,7.19,7.19,0,0,0,4.84,1.65,8.13,8.13,0,0,0,6-2.59l5.31,2.59a12.53,12.53,0,0,1-4.74,4.32,14.29,14.29,0,0,1-6.58,1.41,12.61,12.61,0,0,1-9.58-3.9,13.45,13.45,0,0,1-3.71-9.72,13.91,13.91,0,0,1,3.71-10,12.18,12.18,0,0,1,9.25-4,12.64,12.64,0,0,1,9.63,4c2.49,2.63,3.71,6.1,3.71,10.47l0,1.32Zm-6.29-5.22a6.69,6.69,0,0,0-2.44-3.56,7,7,0,0,0-4.27-1.37,7.31,7.31,0,0,0-4.61,1.55,8.81,8.81,0,0,0-2.3,3.38Z"/><path id="Fill-5" class="cls-2" d="M224.7,30.58l-5.21,3a9.19,9.19,0,0,0-2.91-2.25,8.27,8.27,0,0,0-3.38-.61,7.48,7.48,0,0,0-7.85,7.84A7.25,7.25,0,0,0,213,46.12a7.87,7.87,0,0,0,6.58-3l4.93,3.52a13.37,13.37,0,0,1-11.37,5.45c-4.41,0-7.84-1.37-10.33-4.09a14.17,14.17,0,0,1-1.93-16.58,13.45,13.45,0,0,1,5.08-5,15.31,15.31,0,0,1,14-.29,14,14,0,0,1,4.79,4.47"/><path id="Fill-6" class="cls-2" d="M230.43,15.17h6.29v20.9L246,25.27h7.89L243.11,37.81l12.07,13.62h-7.8L236.77,39.36V51.43h-6.29V15.17"/><path id="Fill-7" class="cls-2" d="M264,15.17v13a12.29,12.29,0,0,1,3.67-2.68,9.87,9.87,0,0,1,4.22-.89,10.8,10.8,0,0,1,8.36,3.9,14.43,14.43,0,0,1,3.43,10,14.09,14.09,0,0,1-3.52,9.76,10.94,10.94,0,0,1-8.41,4,10.47,10.47,0,0,1-4-.8A12.85,12.85,0,0,1,264,48.75v2.77h-6.24V15.17Zm6.63,15.5a6.47,6.47,0,0,0-4.94,2.11,7.8,7.8,0,0,0-2,5.55,8,8,0,0,0,2,5.63,6.35,6.35,0,0,0,4.94,2.16,6.24,6.24,0,0,0,4.83-2.21,8,8,0,0,0,2-5.58,7.91,7.91,0,0,0-1.92-5.5,6.33,6.33,0,0,0-4.88-2.16Z"/><path id="Fill-8" class="cls-2" d="M300.64,24.61a12.57,12.57,0,0,1,6.67,1.88,13.1,13.1,0,0,1,4.88,5,13.82,13.82,0,0,1,1.74,6.85,14.77,14.77,0,0,1-1.74,7,13,13,0,0,1-4.78,5,12.8,12.8,0,0,1-6.72,1.83,12.43,12.43,0,0,1-9.21-4,13.65,13.65,0,0,1-3.8-9.72A13.59,13.59,0,0,1,292,28.23a11.82,11.82,0,0,1,8.64-3.62Zm.1,6.2a6.4,6.4,0,0,0-4.89,2.11,7.68,7.68,0,0,0-1.92,5.45,7.92,7.92,0,0,0,1.92,5.54A6.3,6.3,0,0,0,300.74,46a6.2,6.2,0,0,0,4.88-2.16,7.71,7.71,0,0,0,2-5.5,7.73,7.73,0,0,0-1.92-5.45,6.5,6.5,0,0,0-4.93-2.11Z"/><path id="Fill-9" class="cls-2" d="M330.79,24.61a12.55,12.55,0,0,1,6.67,1.88,13.2,13.2,0,0,1,4.89,5,13.92,13.92,0,0,1,1.73,6.85,14.88,14.88,0,0,1-1.73,7,13.11,13.11,0,0,1-4.79,5,12.8,12.8,0,0,1-6.72,1.83,12.39,12.39,0,0,1-9.2-4,13.62,13.62,0,0,1-3.81-9.72,13.59,13.59,0,0,1,4.32-10.24,12,12,0,0,1,8.64-3.62Zm.1,6.2A6.48,6.48,0,0,0,326,32.92a7.68,7.68,0,0,0-1.92,5.45A7.92,7.92,0,0,0,326,43.91,6.32,6.32,0,0,0,330.89,46a6.2,6.2,0,0,0,4.88-2.16,7.71,7.71,0,0,0,2-5.5,7.73,7.73,0,0,0-1.92-5.45,6.35,6.35,0,0,0-4.93-2.11Z"/><path id="Fill-10" class="cls-2" d="M349.25,15.17h6.29v20.9l9.25-10.8h7.89L361.93,37.81,374,51.43h-7.8L355.59,39.36V51.43H349.3V15.17"/></g><rect class="cls-3" x="42.23" y="57.41" width="15.19" height="10.1"/><rect class="cls-4" x="42.23" width="15.19" height="10.1"/><rect class="cls-5" y="10.1" width="10.1" height="12.92"/><rect class="cls-6" y="44.48" width="10.1" height="12.92"/></g></g></svg>