<?xml version="1.0" encoding="utf-8"?>
<!-- Generator: Adobe Illustrator 23.0.1, SVG Export Plug-In . SVG Version: 6.00 Build 0)  -->
<svg version="1.1" id="Layer_1" xmlns="http://www.w3.org/2000/svg" xmlns:xlink="http://www.w3.org/1999/xlink" x="0px" y="0px"
	 viewBox="0 0 1053.14 232.81" style="enable-background:new 0 0 1053.14 232.81;" xml:space="preserve">
<style type="text/css">
	.st0{fill:#B8C1CB;}
</style>
<path d="M118.03,146.92V0.43h47.76v140.46c0,9.89,2.17,12.3,12.3,12.3h4.1l5.63,38.75c-3.62,0.48-18.41,1.53-27.34,1.53
	C134.19,193.48,118.03,184.32,118.03,146.92z"/>
<path d="M483.92,57.44l37.15-2.9l3.62,11.07c7.48-7,20.5-13.99,48.49-13.99c48.25,0,59.35,34.02,59.35,71.89
	c0,38.12-12.3,71.65-62.24,71.65c-22.19,0-32.57-5.07-38.6-10.62v48.25h-47.77V57.44z M584.05,125.45c0-16.16-2.9-30.4-23.64-30.4
	c-22.19,0-28.71,11.34-28.71,30.4s4.82,29.43,28.71,29.43C580.67,154.89,584.05,141.61,584.05,125.45z"/>
<path d="M802.95,57.44l37.15-2.9L844.93,69c6.03-8.2,22.68-15.2,42.46-15.92v45.98c-31.85,0.24-36.67,9.75-36.67,28.57V193h-47.77
	V57.44z"/>
<path d="M900.72,53.16h24.61l7.72-28.06l36.91-7.96v36.03h30.16v45.95h-30.16v39.85c0,9.41,1.45,14.23,16.4,14.23h13.75V193
	c-7.24,0.48-15.2,0.72-24.13,0.72c-40.29,0-53.56-12.79-53.56-47.52V99.11h-21.71V53.16z"/>
<rect x="1013.35" y="153.19" class="st0" width="39.78" height="39.78"/>
<path d="M0,54.76h26.05v-2.65C26.05,17.37,39.08,0,83.95,0c11.82,0,13.99,0.25,19.78,0.73v38.84H90.47
	c-13.75,0-16.64,3.38-16.64,12.3v2.9h29.91v40.53H73.82V193H26.05V95.29H0V54.76z"/>
<path d="M291.81,151.75c-7.9,4.62-11.98,5.66-27.74,5.66c-18.7,0-25.89-6.65-28.29-17.92h91.84c1.68-48.68-2.4-88-63.54-88
	c-61.38,0-74.33,33.81-74.33,71.45c0,38.61,12.95,72.59,74.33,72.59c24.21,0,39.47-4.48,55.67-15.01L291.81,151.75z M262.64,90.81
	c19.66,0,21.1,9.35,21.82,20.62H235.3C237.23,98.24,243.46,90.81,262.64,90.81z"/>
<g>
	<polygon points="422.33,193.06 398.91,159.58 375.49,193.06 322.09,193.06 372.08,121.84 326.67,57.49 380.65,57.45 399.14,83.71 
		417.64,57.46 472.21,57.49 425.95,121.52 476.09,193.06 	"/>
</g>
<path d="M642.42,123.52c0-45.83,20.99-71.89,75.03-71.89c54.04,0,74.79,26.06,74.79,71.89c0,45.84-20.75,72.14-74.79,72.14
	C663.41,195.66,642.42,169.36,642.42,123.52z M744.23,124.97c0-17.37-4.34-29.92-26.78-29.92c-22.43,0-26.78,12.54-26.78,29.92
	c0,17.13,4.34,29.92,26.78,29.92C739.89,154.89,744.23,142.1,744.23,124.97z"/>
</svg>
