<svg xmlns="http://www.w3.org/2000/svg" xmlns:xlink="http://www.w3.org/1999/xlink" viewBox="0 0 675.99 337.55"><defs><style>.cls-1{fill:none;}.cls-2{clip-path:url(#clip-path);}.cls-3{fill:#a11c21;}.cls-4{fill:#cc2126;}.cls-5{fill:#fff;}.cls-6{fill:#8f1a1c;}.cls-7{fill:#b22124;}.cls-8{fill:#e81c29;}.cls-9{fill:#7a1217;}.cls-10{fill:#9e1c21;}.cls-11{fill:#a373f9;}.cls-12{fill:#c596fe;}.cls-13{fill:#7552cc;}.cls-14{fill:#ecd7ff;}.cls-15{fill:#4b39b2;}</style><clipPath id="clip-path" transform="translate(0 0)"><rect class="cls-1" width="675.98" height="337.55"/></clipPath></defs><title>Asset 125</title><g id="Layer_2" data-name="Layer 2"><g id="Layer_1-2" data-name="Layer 1"><g class="cls-2"><path class="cls-3" d="M86.38,168.12A40,40,0,0,1,109,147,86.08,86.08,0,0,1,83,87.93a79.87,79.87,0,0,0-71.8,52.54,40.16,40.16,0,0,0,75.21,27.6Z" transform="translate(0 0)"/><path class="cls-4" d="M162.68,190.78a40.19,40.19,0,0,1-3.05,10.34,80.34,80.34,0,0,1-146.5-66,40.17,40.17,0,0,0,73.25,33A40,40,0,0,1,109,147a86.07,86.07,0,0,0,51.8,24.17c1.7.16,3.43.27,5.18.33a79.74,79.74,0,0,1-3.33,19.44.66.66,0,0,0,0-.15" transform="translate(0 0)"/><path class="cls-5" d="M169.31,171.58c-1.49,0-3,0-4.4-.11A78.6,78.6,0,1,1,83,89.61c-.08-1.45-.11-2.93-.11-4.4,0-1.13,0-2.24.08-3.37a86.37,86.37,0,1,0,89.67,89.66c-1.12.05-2.24.08-3.36.08" transform="translate(0 0)"/><path class="cls-6" d="M168.21,86.39A40,40,0,0,1,189.35,109,86.06,86.06,0,0,1,248.4,83a79.86,79.86,0,0,0-52.56-71.83,40.16,40.16,0,0,0-27.6,75.21Z" transform="translate(0 0)"/><path class="cls-7" d="M145.56,162.68a40.21,40.21,0,0,1-10.34-3.06,80.34,80.34,0,0,1,66-146.5,40.17,40.17,0,0,0-33,73.25A40,40,0,0,1,189.35,109a86.1,86.1,0,0,0-24.17,51.8q-.24,2.58-.33,5.19a80.23,80.23,0,0,1-19.44-3.34Z" transform="translate(0 0)"/><path class="cls-5" d="M164.76,169.29c0-1.49,0-2.95.11-4.4A78.6,78.6,0,1,1,246.74,83.1c1.46-.07,2.92-.11,4.4-.11,1.13,0,2.24,0,3.37.08a86.35,86.35,0,1,0-89.68,89.59c0-1.12-.07-2.24-.07-3.37" transform="translate(0 0)"/><path class="cls-7" d="M169.22,251.18a40.07,40.07,0,0,1-21.13-22.64,86,86,0,0,1-59,25.93,79.8,79.8,0,0,0,52.55,71.92,40.16,40.16,0,0,0,27.6-75.21Z" transform="translate(0 0)"/><path class="cls-8" d="M191.88,174.87a40.09,40.09,0,0,1,10.34,3.06,80.34,80.34,0,0,1-66,146.5,40.17,40.17,0,0,0,33-73.25,40,40,0,0,1-21.13-22.64,86.11,86.11,0,0,0,24.2-51.8c.17-1.72.27-3.45.34-5.18a79.58,79.58,0,0,1,19.43,3.33Z" transform="translate(0 0)"/><path class="cls-5" d="M172.6,172.62a16,16,0,0,1-7.73,0,14.9,14.9,0,0,1,0-7.73,11.77,11.77,0,0,1,7.73,0,10.63,10.63,0,0,1,0,7.73" transform="translate(0 0)"/><path class="cls-9" d="M251,169.37A40,40,0,0,1,228.4,190.5a86.13,86.13,0,0,1,26,59.06A79.86,79.86,0,0,0,326.25,197,40.16,40.16,0,0,0,251,169.4Z" transform="translate(0 0)"/><path class="cls-10" d="M174.73,146.71a40.21,40.21,0,0,1,3.06-10.34,80.34,80.34,0,0,1,146.49,66,40.17,40.17,0,0,0-73.25-33,40,40,0,0,1-22.63,21.14,86.2,86.2,0,0,0-51.81-24.18c-1.35-.13-2.71-.22-4.07-.29-.37,0,0-.67-.35-.68,0-.43-.74-.24-.69-.68a80.27,80.27,0,0,1,3.26-18.12s0,.08,0,.13" transform="translate(0 0)"/><path class="cls-5" d="M168.12,165.91c1.49,0,2.94.06,4.4.13a78.59,78.59,0,1,1,81.86,81.83c.08,1.46.12,2.93.12,4.4,0,1.14-.05,2.24-.09,3.38A86.37,86.37,0,1,0,164.74,166c1.13,0,2.25-.08,3.38-.08" transform="translate(0 0)"/><path class="cls-5" d="M172.69,168.26c0,1.49,0,3-.12,4.4a78.59,78.59,0,0,1-3.35,157.12c-42.21,0-76.75-33.62-78.51-75.41-1.5.08-2.85.13-4.33.13-1.14,0-2.33-.07-3.44-.11,1.77,46.07,39.79,83.16,86.28,83.16a86.36,86.36,0,0,0,3.37-172.66c0,1.12.1,2.24.1,3.37" transform="translate(0 0)"/><path d="M461.56,114.91v-6.86h18.95l1.06,8.48a20.71,20.71,0,0,1,6.34-7,15.15,15.15,0,0,1,8.64-2.54,18.68,18.68,0,0,1,2.65.19,14.62,14.62,0,0,1,2.1.4l-1.45,9.89-6.26-.32a12.18,12.18,0,0,0-11.91,7.51V158.2l9.12,1.52v6.81H461.56v-6.81l9.11-1.52V116.43Z" transform="translate(0 0)"/></g><rect x="556.16" y="17.13" width="12.06" height="303.28"/><g class="cls-2"><path d="M664.92,199.1q0-10-4-16.38t-11.95-6.38a15.14,15.14,0,0,0-8.06,2.06,15.72,15.72,0,0,0-5.42,5.62V212.5a15,15,0,0,0,5.4,5.59,15.75,15.75,0,0,0,8.19,2q7.82,0,11.84-5.52t4-14.32Zm-49.58,43.78,9.11-1.52V177.15l-9.11-1.51v-6.87H633.9l1,7.14a20.22,20.22,0,0,1,7.34-6.11,22.78,22.78,0,0,1,10-2.1q11.24,0,17.46,8.62T676,199.1v1.13q0,12.65-6.26,20.41t-17.28,7.75a24.62,24.62,0,0,1-9.8-1.81,18.94,18.94,0,0,1-7.19-5.38v20.16l9.11,1.52v6.86H615.34Z" transform="translate(0 0)"/></g><path class="cls-11" d="M84.86,168.37A39.21,39.21,0,0,1,107,147.7,84.21,84.21,0,0,1,81.54,90a78.08,78.08,0,0,0-70.2,51.39,39.27,39.27,0,0,0,73.54,27Z" transform="translate(0 0)"/><path class="cls-1" d="M159.92,183.35v0Z" transform="translate(0 0)"/><path class="cls-1" d="M159.76,188.34v-.19A1.2,1.2,0,0,1,159.76,188.34Z" transform="translate(0 0)"/><path class="cls-12" d="M159.48,190.53a39.21,39.21,0,0,1-3,10.11A78.56,78.56,0,1,1,13.24,136.11a39.28,39.28,0,0,0,71.62,32.26A39.17,39.17,0,0,1,107,147.7a84.18,84.18,0,0,0,50.66,23.64h0c1.67.16,3.36.26,5.07.33a78.54,78.54,0,0,1-3.26,19A.82.82,0,0,1,159.48,190.53Z" transform="translate(0 0)"/><path class="cls-5" d="M166,171.76c-1.46,0-2.9,0-4.31-.11A76.85,76.85,0,1,1,81.59,91.6c-.08-1.43-.11-2.86-.11-4.31,0-1.11,0-2.19.08-3.29a84.45,84.45,0,1,0,87.69,87.68C168.14,171.72,167.06,171.76,166,171.76Z" transform="translate(0 0)"/><path class="cls-13" d="M164.88,88.45a39.12,39.12,0,0,1,20.67,22.13A84.17,84.17,0,0,1,243.3,85.13a78.09,78.09,0,0,0-51.4-70.24,39.28,39.28,0,0,0-27,73.55Z" transform="translate(0 0)"/><path class="cls-1" d="M144.92,163.33h0Z" transform="translate(0 0)"/><path class="cls-11" d="M142.73,163.05a39.65,39.65,0,0,1-10.1-3A78.56,78.56,0,0,1,197.15,16.8a39.28,39.28,0,0,0-32.26,71.63,39.14,39.14,0,0,1,20.67,22.14,84.18,84.18,0,0,0-23.64,50.65h0c-.16,1.68-.26,3.37-.33,5.07a78.14,78.14,0,0,1-19-3.26Z" transform="translate(0 0)"/><path class="cls-5" d="M161.51,169.52c0-1.46,0-2.9.11-4.31a76.85,76.85,0,1,1,80-80c1.43-.07,2.86-.11,4.31-.11,1.11,0,2.19,0,3.29.08a84.44,84.44,0,1,0-87.69,87.61C161.58,171.72,161.51,170.62,161.51,169.52Z" transform="translate(0 0)"/><path class="cls-12" d="M165.88,249.59a39.14,39.14,0,0,1-20.67-22.14,84.07,84.07,0,0,1-57.74,25.36,78,78,0,0,0,51.38,70.33,39.27,39.27,0,0,0,27-73.54Z" transform="translate(0 0)"/><path class="cls-1" d="M185.84,174.7h0Z" transform="translate(0 0)"/><path class="cls-14" d="M188,175a39.61,39.61,0,0,1,10.11,3,78.56,78.56,0,1,1-64.52,143.26h0a39.28,39.28,0,0,0,32.26-71.63,39.14,39.14,0,0,1-20.67-22.14,84.18,84.18,0,0,0,23.66-50.65h0q.24-2.52.33-5.07a78.14,78.14,0,0,1,19,3.26Z" transform="translate(0 0)"/><path class="cls-5" d="M169.17,172.77a15.56,15.56,0,0,1-7.55,0,14.47,14.47,0,0,1,0-7.56,11.5,11.5,0,0,1,7.55,0A10.28,10.28,0,0,1,169.17,172.77Z" transform="translate(0 0)"/><path class="cls-15" d="M245.88,169.59a39.17,39.17,0,0,1-22.14,20.67A84.17,84.17,0,0,1,249.19,248a78.09,78.09,0,0,0,70.24-51.41,39.28,39.28,0,0,0-73.55-27Z" transform="translate(0 0)"/><path class="cls-1" d="M170.82,154.62v0Z" transform="translate(0 0)"/><path class="cls-1" d="M171,149.62v.19A.6.6,0,0,1,171,149.62Z" transform="translate(0 0)"/><path class="cls-13" d="M171.26,147.43a39.21,39.21,0,0,1,3-10.11A78.56,78.56,0,1,1,317.5,201.87a39.28,39.28,0,0,0-71.62-32.26,39.17,39.17,0,0,1-22.14,20.67,84.18,84.18,0,0,0-50.66-23.64h0c-1.32-.13-2.65-.22-4-.28-.36,0,0-.66-.33-.66,0-.43-.73-.25-.68-.68a78.42,78.42,0,0,1,3.19-17.71A.62.62,0,0,1,171.26,147.43Z" transform="translate(0 0)"/><path class="cls-5" d="M164.8,166.21c1.46,0,2.87,0,4.3.13a76.86,76.86,0,1,1,80.05,80c.07,1.42.11,2.86.11,4.3,0,1.11,0,2.19-.08,3.3a84.45,84.45,0,1,0-87.69-87.67C162.59,166.25,163.69,166.21,164.8,166.21Z" transform="translate(0 0)"/><path class="cls-5" d="M169.26,168.5c0,1.46,0,2.9-.11,4.31a76.85,76.85,0,0,1-3.27,153.64c-41.29,0-75.06-32.87-76.79-73.74-1.46.07-2.78.13-4.23.13-1.11,0-2.27-.06-3.37-.11,1.75,45,38.92,81.32,84.39,81.32a84.45,84.45,0,0,0,3.29-168.84C169.22,166.3,169.26,167.4,169.26,168.5Z" transform="translate(0 0)"/></g></g></svg>