<svg xmlns="http://www.w3.org/2000/svg" xmlns:xlink="http://www.w3.org/1999/xlink" viewBox="0 0 339.3 485.42"><defs><style>.cls-1{fill:none;}.cls-2{clip-path:url(#clip-path);}.cls-3{clip-path:url(#clip-path-2);}.cls-4{fill:#a01d21;}.cls-5{fill:#cb2027;}.cls-6{fill:#fff;}.cls-7{fill:#8f191c;}.cls-8{fill:#b32024;}.cls-9{fill:#e81d29;}.cls-10{fill:#7a1216;}.cls-11{fill:#9e1d20;}.cls-12{fill:#a373f9;}.cls-13{fill:#c596fe;}.cls-14{fill:#7552cc;}.cls-15{fill:#ecd7ff;}.cls-16{fill:#4b39b2;}</style><clipPath id="clip-path" transform="translate(0 -23.34)"><rect class="cls-1" x="2.45" width="334.39" height="334.39"/></clipPath><clipPath id="clip-path-2" transform="translate(0 -23.34)"><rect class="cls-1" x="2.45" y="0.44" width="334.39" height="334.39"/></clipPath></defs><title>Asset 126</title><g id="Layer_2" data-name="Layer 2"><g id="Layer_1-2" data-name="Layer 1"><g class="cls-2"><g class="cls-3"><path class="cls-4" d="M86.86,338.38a40.27,40.27,0,0,1,22.76-21.25,86.62,86.62,0,0,1-26.17-59.39A80.29,80.29,0,0,0,11.23,310.6a40.39,40.39,0,0,0,75.63,27.78Z" transform="translate(0 -23.34)"/><path class="cls-1" d="M164.05,353.78s0-.11,0-.16S164.05,353.73,164.05,353.78Z" transform="translate(0 -23.34)"/><path class="cls-1" d="M163.88,358.92c0-.07,0-.14,0-.2S163.89,358.85,163.88,358.92Z" transform="translate(0 -23.34)"/><path class="cls-5" d="M163.6,361.17a40.5,40.5,0,0,1-3.08,10.39A80.79,80.79,0,1,1,13.2,305.21a40.39,40.39,0,0,0,73.66,33.17,40.27,40.27,0,0,1,22.76-21.25,86.61,86.61,0,0,0,52.1,24.31h0c1.72.17,3.46.27,5.21.34a80.57,80.57,0,0,1-3.35,19.55A.78.78,0,0,1,163.6,361.17Z" transform="translate(0 -23.34)"/><path class="cls-6" d="M170.24,341.86c-1.48,0-3,0-4.42-.11a79,79,0,1,1-82.33-82.33c-.07-1.46-.11-2.94-.11-4.42,0-1.14,0-2.26.09-3.39a86.85,86.85,0,1,0,90.17,90.17C172.51,341.82,171.38,341.86,170.24,341.86Z" transform="translate(0 -23.34)"/><path class="cls-7" d="M169.15,256.19A40.26,40.26,0,0,1,190.41,279a86.55,86.55,0,0,1,59.38-26.17,80.27,80.27,0,0,0-52.85-72.22,40.39,40.39,0,0,0-27.79,75.63Z" transform="translate(0 -23.34)"/><path class="cls-1" d="M153.76,333.36h0Z" transform="translate(0 -23.34)"/><path class="cls-1" d="M148.62,333.19l.2,0Z" transform="translate(0 -23.34)"/><path class="cls-8" d="M146.37,332.91A40.5,40.5,0,0,1,136,329.83a80.79,80.79,0,1,1,66.35-147.32,40.39,40.39,0,0,0-33.17,73.66,40.29,40.29,0,0,1,21.25,22.77A86.55,86.55,0,0,0,166.1,331h0c-.17,1.72-.27,3.46-.34,5.21a80.57,80.57,0,0,1-19.55-3.35Z" transform="translate(0 -23.34)"/><path class="cls-6" d="M165.68,339.55c0-1.48,0-2.95.11-4.42a79,79,0,1,1,82.33-82.23c1.46-.07,2.94-.11,4.42-.11,1.14,0,2.26,0,3.39.09A86.85,86.85,0,1,0,165.76,343C165.72,341.82,165.68,340.69,165.68,339.55Z" transform="translate(0 -23.34)"/><path class="cls-8" d="M170.17,421.9a40.29,40.29,0,0,1-21.26-22.76A86.43,86.43,0,0,1,89.53,425.2a80.26,80.26,0,0,0,52.85,72.33,40.39,40.39,0,0,0,27.79-75.63Z" transform="translate(0 -23.34)"/><path class="cls-1" d="M185.57,344.71h0Z" transform="translate(0 -23.34)"/><path class="cls-1" d="M190.7,344.88l-.2,0Z" transform="translate(0 -23.34)"/><path class="cls-9" d="M193,345.16a40.57,40.57,0,0,1,10.4,3.08A80.79,80.79,0,0,1,137,495.56a40.39,40.39,0,0,0,33.18-73.66,40.29,40.29,0,0,1-21.26-22.76A86.55,86.55,0,0,0,173.22,347h0c.17-1.72.28-3.46.34-5.21a80.57,80.57,0,0,1,19.55,3.35Z" transform="translate(0 -23.34)"/><path class="cls-6" d="M173.56,342.9a16.32,16.32,0,0,1-3.94.48,16.56,16.56,0,0,1-3.83-.48,15,15,0,0,1,0-7.77,11.76,11.76,0,0,1,7.77,0,10.66,10.66,0,0,1,0,7.77Z" transform="translate(0 -23.34)"/><path class="cls-10" d="M252.44,339.63a40.24,40.24,0,0,1-22.76,21.25,86.62,86.62,0,0,1,26.17,59.39,80.27,80.27,0,0,0,72.22-52.85,40.39,40.39,0,0,0-75.63-27.79Z" transform="translate(0 -23.34)"/><path class="cls-1" d="M175.25,324.23c0,.06,0,.11,0,.17S175.25,324.29,175.25,324.23Z" transform="translate(0 -23.34)"/><path class="cls-1" d="M175.42,319.1c0,.06,0,.13,0,.2S175.41,319.16,175.42,319.1Z" transform="translate(0 -23.34)"/><path class="cls-11" d="M175.7,316.85a40.57,40.57,0,0,1,3.08-10.4A80.79,80.79,0,0,1,326.1,372.81a40.39,40.39,0,0,0-73.66-33.18,40.24,40.24,0,0,1-22.76,21.25,86.66,86.66,0,0,0-52.1-24.31h0c-1.36-.13-2.72-.22-4.1-.29-.37,0,0-.67-.34-.68,0-.45-.73-.25-.7-.69a80.44,80.44,0,0,1,3.28-18.22A1,1,0,0,1,175.7,316.85Z" transform="translate(0 -23.34)"/><path class="cls-6" d="M169.06,336.15c1.48,0,2.95.06,4.42.13a79,79,0,1,1,82.33,82.31c.07,1.46.11,2.94.11,4.42,0,1.14,0,2.27-.09,3.4a86.85,86.85,0,1,0-90.17-90.17C166.79,336.19,167.92,336.15,169.06,336.15Z" transform="translate(0 -23.34)"/><path class="cls-6" d="M173.65,338.52c0,1.48,0,3-.11,4.42a79,79,0,0,1-3.37,158c-42.46,0-77.19-33.8-79-75.83-1.47.07-2.87.13-4.35.13-1.14,0-2.34-.06-3.47-.1,1.79,46.32,40,83.62,86.78,83.62a86.85,86.85,0,0,0,3.39-173.64C173.61,336.25,173.65,337.38,173.65,338.52Z" transform="translate(0 -23.34)"/></g><path class="cls-8" d="M123.75,63.6V60.68h7.81l.44,3.61a8.71,8.71,0,0,1,2.61-3,6.1,6.1,0,0,1,3.56-1.09,7.09,7.09,0,0,1,1.1.09,5.88,5.88,0,0,1,.86.17l-.6,4.21L137,64.55a5.21,5.21,0,0,0-3,.84A5.46,5.46,0,0,0,132,67.75v14.3l3.76.65v2.9H123.75V82.7l3.76-.65V64.25Z" transform="translate(0 -23.34)"/><path class="cls-8" d="M191.45,117.64l3.75-.64V89.63L191.45,89V86.06h7.64l.42,3a8.37,8.37,0,0,1,3-2.6,9.07,9.07,0,0,1,4.13-.9,8.27,8.27,0,0,1,7.2,3.67q2.56,3.67,2.57,9.71v.49a13.72,13.72,0,0,1-2.58,8.69,8.51,8.51,0,0,1-7.12,3.31,10,10,0,0,1-4-.77,7.8,7.8,0,0,1-3-2.3V117l3.75.64v2.93h-12ZM211.88,99a13.21,13.21,0,0,0-1.66-7,5.41,5.41,0,0,0-4.93-2.71,6.11,6.11,0,0,0-3.32.87,6.54,6.54,0,0,0-2.23,2.4V104.7a5.92,5.92,0,0,0,5.6,3.22,5.59,5.59,0,0,0,4.88-2.35,10.33,10.33,0,0,0,1.66-6.1Z" transform="translate(0 -23.34)"/><rect class="cls-8" x="163.55" width="4.47" height="125.57"/><path class="cls-12" d="M89.14,337.65A39.16,39.16,0,0,1,111.28,317a84.24,84.24,0,0,1-25.46-57.75,78.07,78.07,0,0,0-70.2,51.38,39.28,39.28,0,0,0,73.55,27Z" transform="translate(0 -23.34)"/><path class="cls-1" d="M164.21,352.63v0Z" transform="translate(0 -23.34)"/><path class="cls-1" d="M164,357.62v-.19A.6.6,0,0,1,164,357.62Z" transform="translate(0 -23.34)"/><path class="cls-13" d="M163.76,359.81a39.21,39.21,0,0,1-3,10.11A78.55,78.55,0,1,1,17.52,305.4a39.28,39.28,0,0,0,71.62,32.25A39.16,39.16,0,0,1,111.28,317a84.22,84.22,0,0,0,50.66,23.63h0q2.51.24,5.07.33a78.62,78.62,0,0,1-3.26,19A.86.86,0,0,1,163.76,359.81Z" transform="translate(0 -23.34)"/><path class="cls-6" d="M170.24,341c-1.46,0-2.9,0-4.31-.11a76.85,76.85,0,1,1-80.06-80.05c-.07-1.43-.11-2.86-.11-4.3,0-1.11,0-2.19.08-3.3A84.45,84.45,0,1,0,173.53,341C172.43,341,171.34,341,170.24,341Z" transform="translate(0 -23.34)"/><path class="cls-14" d="M169.16,257.73a39.15,39.15,0,0,1,20.67,22.13,84.23,84.23,0,0,1,57.75-25.45,78.09,78.09,0,0,0-51.4-70.24,39.28,39.28,0,0,0-27,73.55Z" transform="translate(0 -23.34)"/><path class="cls-1" d="M149.2,332.61h0Z" transform="translate(0 -23.34)"/><path class="cls-12" d="M147,332.33a39.21,39.21,0,0,1-10.11-3,78.55,78.55,0,1,1,64.52-143.25,39.28,39.28,0,0,0-32.26,71.62,39.17,39.17,0,0,1,20.67,22.14,84.18,84.18,0,0,0-23.64,50.66h0c-.16,1.67-.26,3.37-.32,5.07a78.62,78.62,0,0,1-19-3.26Z" transform="translate(0 -23.34)"/><path class="cls-6" d="M165.79,338.8c0-1.46,0-2.89.11-4.3a76.86,76.86,0,1,1,80.06-80c1.42-.07,2.85-.11,4.3-.11,1.11,0,2.19,0,3.3.08a84.45,84.45,0,1,0-87.7,87.62C165.86,341,165.79,339.9,165.79,338.8Z" transform="translate(0 -23.34)"/><path class="cls-13" d="M170.16,418.87a39.15,39.15,0,0,1-20.67-22.13,84.1,84.1,0,0,1-57.74,25.35,78,78,0,0,0,51.39,70.33,39.27,39.27,0,0,0,27-73.54Z" transform="translate(0 -23.34)"/><path class="cls-1" d="M190.12,344h0Z" transform="translate(0 -23.34)"/><path class="cls-15" d="M192.31,344.25a39.61,39.61,0,0,1,10.11,3A78.56,78.56,0,1,1,137.9,490.5h0a39.28,39.28,0,0,0,32.26-71.63,39.12,39.12,0,0,1-20.67-22.13,84.15,84.15,0,0,0,23.66-50.66h0q.24-2.52.33-5.07a78.14,78.14,0,0,1,19,3.26Z" transform="translate(0 -23.34)"/><path class="cls-6" d="M173.45,342.05a15.56,15.56,0,0,1-7.55,0,14.43,14.43,0,0,1,0-7.55,11.37,11.37,0,0,1,7.55,0A10.26,10.26,0,0,1,173.45,342.05Z" transform="translate(0 -23.34)"/><path class="cls-16" d="M250.16,338.87A39.17,39.17,0,0,1,228,359.54a84.22,84.22,0,0,1,25.46,57.75,78.09,78.09,0,0,0,70.23-51.4,39.28,39.28,0,0,0-73.55-27Z" transform="translate(0 -23.34)"/><path class="cls-1" d="M175.1,323.9v0Z" transform="translate(0 -23.34)"/><path class="cls-1" d="M175.26,318.9v.19A.6.6,0,0,1,175.26,318.9Z" transform="translate(0 -23.34)"/><path class="cls-14" d="M175.54,316.72a39.21,39.21,0,0,1,3-10.11,78.56,78.56,0,1,1,143.25,64.54,39.28,39.28,0,0,0-71.62-32.26A39.17,39.17,0,0,1,228,359.56a84.22,84.22,0,0,0-50.66-23.63h0c-1.32-.14-2.64-.22-4-.29-.35,0,0-.66-.33-.66,0-.43-.73-.24-.68-.67a78.4,78.4,0,0,1,3.19-17.72A.78.78,0,0,1,175.54,316.72Z" transform="translate(0 -23.34)"/><path class="cls-6" d="M169.08,335.49c1.46,0,2.87.06,4.3.13a76.86,76.86,0,1,1,80.05,80c.07,1.43.11,2.86.11,4.3,0,1.11,0,2.19-.08,3.3a84.45,84.45,0,1,0-87.69-87.67C166.87,335.53,168,335.49,169.08,335.49Z" transform="translate(0 -23.34)"/><path class="cls-6" d="M173.54,337.79c0,1.45,0,2.89-.11,4.3a76.86,76.86,0,0,1-3.27,153.65c-41.29,0-75.06-32.87-76.79-73.75-1.46.08-2.78.13-4.23.13-1.11,0-2.27-.06-3.37-.1,1.75,45.05,38.92,81.32,84.39,81.32a84.46,84.46,0,0,0,3.29-168.85C173.5,335.58,173.54,336.68,173.54,337.79Z" transform="translate(0 -23.34)"/><path class="cls-12" d="M123.31,64.6V61.68h7.8l.44,3.61a8.73,8.73,0,0,1,2.62-3,6.07,6.07,0,0,1,3.56-1.09,7,7,0,0,1,1.09.09,5.61,5.61,0,0,1,.86.17l-.6,4.21-2.57-.13a5.19,5.19,0,0,0-3,.84,5.32,5.32,0,0,0-1.89,2.36v14.3l3.75.65v2.9h-12V83.7l3.75-.65V65.25Z" transform="translate(0 -23.34)"/><path class="cls-12" d="M191,118.64l3.76-.64V90.63L191,90V87.06h7.65l.41,3a8.37,8.37,0,0,1,3-2.6,9.08,9.08,0,0,1,4.14-.9,8.3,8.3,0,0,1,7.2,3.67Q216,93.95,216,100v.49a13.72,13.72,0,0,1-2.58,8.69,8.51,8.51,0,0,1-7.11,3.31,10,10,0,0,1-4.05-.77,7.87,7.87,0,0,1-3-2.3V118l3.76.64v2.93H191ZM211.43,100a13.21,13.21,0,0,0-1.66-7,5.39,5.39,0,0,0-4.93-2.71,6.1,6.1,0,0,0-3.31.87,6.56,6.56,0,0,0-2.24,2.4V105.7a6,6,0,0,0,5.6,3.22,5.57,5.57,0,0,0,4.88-2.35,10.33,10.33,0,0,0,1.66-6.1Z" transform="translate(0 -23.34)"/><rect class="cls-12" x="163.11" y="1" width="4.47" height="125.57"/></g></g></g></svg>