<svg xmlns="http://www.w3.org/2000/svg" viewBox="0 0 333.94 334.09"><defs><style>.cls-1{fill:#231f20;}</style></defs><title>Asset 132</title><g id="Layer_2" data-name="Layer 2"><g id="Layer_1-2" data-name="Layer 1"><path class="cls-1" d="M161.46,181.55v-.16A.43.43,0,0,0,161.46,181.55Z"/><path class="cls-1" d="M161.29,186.57v-.2A.58.58,0,0,1,161.29,186.57Z"/><path class="cls-1" d="M167.55,169.83c-1.46,0-2.91,0-4.35-.11a77.79,77.79,0,1,1-81-81q-.12-2.16-.12-4.35c0-1.12,0-2.23.09-3.34a85.48,85.48,0,1,0,88.75,88.75C169.76,169.78,168.67,169.83,167.55,169.83Z"/><path class="cls-1" d="M146.27,161.29h0Z"/><path class="cls-1" d="M163.06,167.55c0-1.46,0-2.91.11-4.36a77.79,77.79,0,1,1,81-80.92c1.44-.07,2.89-.11,4.35-.11,1.13,0,2.24,0,3.35.09a85.48,85.48,0,1,0-88.74,88.64C163.1,169.78,163.06,168.67,163.06,167.55Z"/><path class="cls-1" d="M187.68,172.79h0Z"/><path class="cls-1" d="M170.81,170.84a15.8,15.8,0,0,1-7.67,0,14.67,14.67,0,0,1,0-7.67,11.47,11.47,0,0,1,7.67,0A10.47,10.47,0,0,1,170.81,170.84Z"/><path class="cls-1" d="M172.48,152.47v.16A.43.43,0,0,0,172.48,152.47Z"/><path class="cls-1" d="M172.65,147.42v.19A.4.4,0,0,1,172.65,147.42Z"/><path class="cls-1" d="M166.38,164.2c1.46,0,2.91.05,4.35.13a77.79,77.79,0,1,1,81,81c.07,1.44.11,2.89.11,4.35,0,1.12,0,2.23-.08,3.34A85.48,85.48,0,1,0,163,164.28C164.18,164.25,165.27,164.2,166.38,164.2Z"/><path class="cls-1" d="M170.9,166.53c0,1.46,0,2.91-.11,4.35a77.79,77.79,0,0,1-3.31,155.51c-41.78,0-76-33.27-77.71-74.64-1.45.07-2.79.14-4.28.14-1.12,0-2.3-.07-3.41-.11,1.76,45.6,39.38,82.31,85.4,82.31a85.48,85.48,0,0,0,3.34-170.9C170.86,164.3,170.9,165.41,170.9,166.53Z"/></g></g></svg>