<svg xmlns="http://www.w3.org/2000/svg" viewBox="0 0 342.58 342.73"><defs><style>.cls-1{fill:#0c202b;}</style></defs><title>Asset 131</title><g id="Layer_2" data-name="Layer 2"><g id="Layer_1-2" data-name="Layer 1"><path class="cls-1" d="M165.64,186.24v-.16A.43.43,0,0,0,165.64,186.24Z"/><path class="cls-1" d="M165.46,191.4v-.2A.39.39,0,0,1,165.46,191.4Z"/><path class="cls-1" d="M171.89,174.22c-1.5,0-3,0-4.47-.11A79.8,79.8,0,1,1,84.3,91c-.07-1.48-.11-3-.11-4.47,0-1.15,0-2.29.08-3.42a87.69,87.69,0,1,0,91.05,91C174.15,174.17,173,174.22,171.89,174.22Z"/><path class="cls-1" d="M150.06,165.46h0Z"/><path class="cls-1" d="M167.27,171.88c0-1.5,0-3,.12-4.46a79.8,79.8,0,1,1,83.12-83c1.48-.07,3-.11,4.47-.11,1.15,0,2.29,0,3.42.08a87.69,87.69,0,1,0-91,90.94C167.32,174.17,167.27,173,167.27,171.88Z"/><path class="cls-1" d="M192.54,177.26h0Z"/><path class="cls-1" d="M175.23,175.26a16.13,16.13,0,0,1-7.87,0,15,15,0,0,1,0-7.87,11.81,11.81,0,0,1,7.87,0A10.7,10.7,0,0,1,175.23,175.26Z"/><path class="cls-1" d="M176.94,156.41v.17A.48.48,0,0,0,176.94,156.41Z"/><path class="cls-1" d="M177.11,151.23v.2A1.33,1.33,0,0,1,177.11,151.23Z"/><path class="cls-1" d="M170.69,168.45c1.49,0,3,.05,4.46.13a79.8,79.8,0,1,1,83.12,83.1q.12,2.22.12,4.47c0,1.15,0,2.29-.09,3.43a87.69,87.69,0,1,0-91-91C168.43,168.5,169.54,168.45,170.69,168.45Z"/><path class="cls-1" d="M175.32,170.84c0,1.5,0,3-.11,4.46a79.8,79.8,0,0,1-3.4,159.53c-42.86,0-77.93-34.13-79.72-76.56-1.48.07-2.86.13-4.39.13-1.15,0-2.36-.06-3.5-.1,1.81,46.77,40.4,84.43,87.62,84.43a87.69,87.69,0,0,0,3.42-175.32C175.28,168.55,175.32,169.69,175.32,170.84Z"/><path class="cls-1" d="M187.8,6.4l0,2.23C170,8.3,152.93,20.33,148,36.6c-6.24,20.49,3.21,39.17,24.09,47.6,13.48,5.31,23.36,15,27.78,27.34L193.13,114c-3.77-10.5-12-18.49-23.71-23.12-24.21-9.77-35.57-32.4-28.27-56.33,4.63-15.27,17.67-27.09,33.25-31.34"/><path class="cls-1" d="M336.54,191.26l-2.37,0c.32-17.73-11.7-34.83-28-39.77-20.5-6.23-39.18,3.23-47.6,24.09-4.84,12.27-13,21.37-23.71,26.3l-3-6.5c9-4.14,15.91-11.9,20.06-22.45,5-12.44,13.28-21.59,23.88-26.5a45.65,45.65,0,0,1,32.45-1.79c16,4.87,28.25,19,31.92,35.55"/><path class="cls-1" d="M154.29,339.15l.09-4.87c17.74.33,34.83-11.71,39.77-28,6.23-20.5-3.23-39.18-24.09-47.6-13.11-5.16-22.86-14.54-27.43-26.4l6.67-2.57c3.9,10.11,12,17.83,23.41,22.32,12.44,5,21.59,13.27,26.5,23.88A45.65,45.65,0,0,1,201,308.39c-4.36,14.38-16.17,25.7-30.54,30.52"/><path class="cls-1" d="M8.44,153c-.32,17.73,11.71,34.83,28,39.77,20.5,6.23,39.18-3.23,47.6-24.09,4.84-12.27,13-21.37,23.72-26.3l3,6.5c-9,4.14-15.91,11.9-20.07,22.45-5,12.44-13.27,21.59-23.88,26.5a43.51,43.51,0,0,1-18.27,3.93,48.84,48.84,0,0,1-14.18-2.14c-16.27-5-28.63-19.41-32.08-36.34"/></g></g></svg>