<svg xmlns="http://www.w3.org/2000/svg" viewBox="0 0 123.68 180.91"><title>Asset 128</title><g id="Layer_2" data-name="Layer 2"><g id="Layer_1-2" data-name="Layer 1"><path d="M0,58.33v-4.1H10.93l.61,5.06A12.24,12.24,0,0,1,15.2,55.1a8.5,8.5,0,0,1,5-1.51,10,10,0,0,1,1.53.11,7.28,7.28,0,0,1,1.21.24l-.83,5.9-3.62-.19a7.31,7.31,0,0,0-4.22,1.17,7.62,7.62,0,0,0-2.64,3.31v20l5.25.9v4.07H0V85.05l5.26-.9V59.23Z"/><line x1="61.42" y1="180.91" x2="61.42"/><rect x="54.67" width="6.75" height="180.91"/><path d="M88.7,134.66l5.26-.9V95.45l-5.26-.9V90.46H99.41l.58,4.25a11.72,11.72,0,0,1,4.24-3.64A12.65,12.65,0,0,1,110,89.81,11.62,11.62,0,0,1,120.09,95q3.6,5.14,3.59,13.59v.68q0,7.55-3.61,12.17a11.9,11.9,0,0,1-10,4.63,13.87,13.87,0,0,1-5.66-1.08,11,11,0,0,1-4.14-3.21v12l5.25.9v4.09H88.7Zm28.6-26.12A18.52,18.52,0,0,0,115,98.77a7.59,7.59,0,0,0-6.9-3.8,8.53,8.53,0,0,0-4.64,1.22,9.21,9.21,0,0,0-3.13,3.36v17a8.81,8.81,0,0,0,3.11,3.34,8.91,8.91,0,0,0,4.72,1.17,7.82,7.82,0,0,0,6.84-3.29,14.47,14.47,0,0,0,2.32-8.54Z"/></g></g></svg>