<svg xmlns="http://www.w3.org/2000/svg" viewBox="0 0 4857.13 881"><defs><style>.cls-1{fill:#fff;}.cls-2{fill:#a373f9;}.cls-3{fill:none;}.cls-4{fill:#c596fe;}.cls-5{fill:#7552cc;}.cls-6{fill:#ecd7ff;}.cls-7{fill:#4b39b2;}</style></defs><title>Asset 3</title><g id="Layer_2" data-name="Layer 2"><g id="Layer_1-2" data-name="Layer 1"><path class="cls-1" d="M1084.73,374.1V354.2h53.2l3,24.6a59.28,59.28,0,0,1,17.8-20.4,41.87,41.87,0,0,1,24.2-7.4,63,63,0,0,1,7.5.5,38.55,38.55,0,0,1,5.9,1.2l-4.1,28.7-17.6-.9c-8.2,0-15,1.9-20.6,5.7a37.07,37.07,0,0,0-12.9,16.1v97.5l25.6,4.4V524h-82V504.2l25.6-4.4V378.6Z"/><path class="cls-1" d="M1299.43,527.4c-23.6,0-42.5-7.9-56.4-23.6s-21-36.2-21-61.3v-6.9q0-36.3,21.6-60.4t51.1-24.1q34.2,0,51.9,20.7t17.7,55.2v19.3h-110.1l-.5.8c.3,16.3,4.4,29.7,12.4,40.3s19.1,15.8,33.4,15.8c10.5,0,19.6-1.5,27.6-4.5a65.89,65.89,0,0,0,20.5-12.3l12.1,20.1c-6.1,5.9-14.1,10.8-24.1,14.8S1313.53,527.4,1299.43,527.4Zm-4.7-152c-10.4,0-19.2,4.4-26.5,13.1s-11.8,19.7-13.5,32.9l.3.8h78.3v-4.1c0-12.1-3.2-22.3-9.7-30.5S1307.53,375.4,1294.73,375.4Z"/><path class="cls-1" d="M1399,377.1V354.2h26.5V332.7c0-18.1,4.7-32.1,14.2-42s22.7-14.8,39.6-14.8a65.59,65.59,0,0,1,10.8.9q5.4.9,12,2.4l-3.8,23.5c-1.9-.4-4.2-.8-6.8-1.1a75.18,75.18,0,0,0-8.2-.5c-9.1,0-15.9,2.7-20.2,8.1s-6.6,13.2-6.6,23.5v21.5H1492v22.9h-35.5V499.9l25.6,4.4v19.8H1400V504.3l25.6-4.4V377.1Z"/><path class="cls-1" d="M1532,299.1V279.2h56.5V499.9l25.6,4.4v19.8H1532V504.3l25.6-4.4V303.5Z"/><path class="cls-1" d="M1719.23,527.4c-23.6,0-42.5-7.9-56.4-23.6s-21-36.2-21-61.3v-6.9q0-36.3,21.6-60.4t51.1-24.1q34.2,0,51.9,20.7t17.7,55.2v19.3h-110.2l-.5.8c.3,16.3,4.5,29.7,12.5,40.2s19.1,15.8,33.4,15.8c10.5,0,19.6-1.5,27.6-4.5a65.89,65.89,0,0,0,20.5-12.3l12.1,20.1c-6.1,5.9-14.1,10.8-24.1,14.8S1733.33,527.3,1719.23,527.4Zm-4.7-152c-10.4,0-19.2,4.4-26.5,13.1s-11.8,19.7-13.5,32.9l.3.8h78.3v-4.1c0-12.1-3.2-22.3-9.7-30.5S1727.33,375.4,1714.53,375.4Z"/><path class="cls-1" d="M1899.63,503.2a41.7,41.7,0,0,0,27.1-9.5c7.8-6.3,11.7-14.1,11.7-23.3h27.8l.3.9q.75,22.05-19.5,39t-47.3,17c-24.7,0-43.5-8.1-56.6-24.2s-19.6-36.4-19.5-60.8v-6.6c0-24.2,6.5-44.3,19.6-60.5s31.9-24.2,56.5-24.2c13.6,0,25.8,2.2,36.7,6.8a74.53,74.53,0,0,1,26.9,18.5l1.4,37.7h-24.6l-6.8-26.7a41.84,41.84,0,0,0-14.1-8.6,53.68,53.68,0,0,0-19.5-3.3c-16.2,0-27.8,5.8-34.8,17.5s-10.4,26-10.4,42.9v6.6c0,17.4,3.5,31.8,10.4,43.4S1883.33,503.1,1899.63,503.2Z"/><path class="cls-1" d="M2060.13,313.2v41h32.2v22.9h-32.2V480.2c0,8,1.6,13.6,4.9,16.8s7.7,4.9,13.1,4.9a71.22,71.22,0,0,0,9.2-.7c3.4-.5,6.2-1,8.6-1.5l4.2,21.2c-2.9,1.9-7.2,3.4-12.9,4.6a81.14,81.14,0,0,1-17,1.8q-18.9,0-30-11.4c-7.4-7.6-11.2-19.5-11.1-35.7V377.1h-26.8V354.2h26.8v-41Z"/><path class="cls-1" d="M2136.33,504.3l25.6-4.4V378.6l-25.6-4.4v-20h56.6V499.9l25.6,4.4v19.8h-82.1Zm56.5-193.6h-31V279.1h31Z"/><path class="cls-1" d="M2246.23,437.6q0-37.65,20.4-62.1t55.4-24.4c23.4,0,42,8.1,55.6,24.3s20.5,36.9,20.5,62.2v3.5c0,25.3-6.8,46.1-20.4,62.2s-32.1,24.2-55.4,24.2q-35.25,0-55.7-24.3t-20.4-62.1Zm30.9,3.4c0,18,3.8,32.9,11.4,44.6s18.9,17.6,33.8,17.6c14.7,0,25.8-5.9,33.4-17.6s11.4-26.6,11.5-44.6v-3.5c0-17.8-3.8-32.6-11.5-44.4s-18.9-17.7-33.8-17.7-26.1,5.9-33.6,17.7-11.3,26.6-11.3,44.4V441Z"/><path class="cls-1" d="M2426.93,504.3l25.6-4.4V378.6l-25.6-4.4v-20h53.2l2.2,25.3a62,62,0,0,1,21.3-21,57.17,57.17,0,0,1,29.1-7.5c18.3,0,32.5,5.4,42.5,16.1s15.1,27.3,15.1,49.7v83l25.6,4.4V524h-82.1V504.3l25.6-4.4V417.5c0-15-3-25.6-8.9-31.9s-14.9-9.4-27.1-9.4a43.67,43.67,0,0,0-23.6,6.4,47,47,0,0,0-16.4,17.6v99.7l25.6,4.4V524h-82.1Z"/><path class="cls-1" d="M2777.93,407.6h-23.2l-5-20.4a42.26,42.26,0,0,0-14.2-8.6,55.64,55.64,0,0,0-19.4-3.2c-11,0-19.1,2.4-24.5,7.2a22.75,22.75,0,0,0-8,17.4c0,6.7,2.4,12,7.1,15.9s14.3,7.4,28.7,10.4q32.1,6.9,47.9,18.8c10.5,7.9,15.7,18.5,15.7,31.8q0,22.65-18.3,36.6t-47.8,14a119.86,119.86,0,0,1-34.7-4.5,91.32,91.32,0,0,1-27.5-13l-.2-38.8h23.2l5.8,22.8c3.6,3.2,8.4,5.6,14.5,7.1a78.61,78.61,0,0,0,18.8,2.2c11,0,19.6-2.2,25.8-6.7s9.3-10.3,9.3-17.5a21,21,0,0,0-7.8-16.8c-5.2-4.4-15-8.2-29.4-11.5-20.6-4.5-36.2-10.6-46.6-18.4s-15.7-18.2-15.7-31.4c0-13.8,5.9-25.6,17.7-35.3s27.1-14.6,45.9-14.6a113.1,113.1,0,0,1,34.7,5c10.3,3.3,18.8,8,25.6,14Z"/><rect class="cls-1" x="2923.43" width="39" height="881"/><path class="cls-1" d="M3093.83,572.2l25.6-4.4V381.4l-25.6-4.4V357h52.1l2.8,20.7a56.66,56.66,0,0,1,20.6-17.7c8.1-4.1,17.5-6.1,28.2-6.1q31.5,0,49.1,25c11.7,16.7,17.5,38.7,17.5,66.2v3.3q0,36.75-17.6,59.2T3198,530.1c-10.5,0-19.6-1.8-27.6-5.3a54.23,54.23,0,0,1-20.2-15.6v58.6l25.6,4.4v19.9h-82.1ZM3233,445.1c0-19.3-3.8-35.2-11.3-47.6S3203,379,3188.13,379c-8.8,0-16.3,2-22.6,6a44.82,44.82,0,0,0-15.2,16.3V484a42.05,42.05,0,0,0,15.1,16.2c6.2,3.8,13.9,5.7,23,5.7,14.7,0,25.8-5.3,33.3-16s11.3-24.5,11.3-41.6Z"/><path class="cls-1" d="M3295.93,377V357h53.2l3,24.6a59.28,59.28,0,0,1,17.8-20.4,41.87,41.87,0,0,1,24.2-7.4,63,63,0,0,1,7.5.5,38.55,38.55,0,0,1,5.9,1.2l-4.1,28.7-17.6-.9c-8.2,0-15,1.9-20.6,5.7a37.07,37.07,0,0,0-12.9,16.1v97.5l25.6,4.4v19.8h-82.1V507l25.6-4.4V381.4Z"/><path class="cls-1" d="M3433.53,440.4q0-37.65,20.4-62.1t55.4-24.4c23.4,0,42,8.1,55.6,24.3s20.5,36.9,20.5,62.2v3.5c0,25.3-6.8,46.1-20.4,62.2s-32.1,24.2-55.4,24.2q-35.25,0-55.7-24.3t-20.4-62.1Zm30.9,3.4c0,18,3.8,32.9,11.4,44.6s18.9,17.6,33.8,17.6c14.7,0,25.8-5.9,33.4-17.6s11.4-26.6,11.5-44.6v-3.5c0-17.8-3.8-32.6-11.5-44.4s-18.9-17.7-33.8-17.7-26.1,5.9-33.6,17.7-11.3,26.6-11.3,44.4Z"/><path class="cls-1" d="M3669.43,540.9c0,17.5-4.5,30.9-13.5,40.4s-21.5,14.2-37.5,14.2a55.79,55.79,0,0,1-9.1-.7,62.05,62.05,0,0,1-8.5-2.1l2-24.3a29.1,29.1,0,0,0,6.4,1.3,53.37,53.37,0,0,0,6.9.5q10.2,0,16.2-6.9t6-22.5V381.4l-25.6-4.4V357h56.5Zm-.9-228h-30.9V282h30.9Z"/><path class="cls-1" d="M3793.33,530.2c-23.6,0-42.5-7.9-56.5-23.6s-21-36.2-21-61.3v-6.9q0-36.3,21.6-60.4t51.1-24.1q34.2,0,51.9,20.7t17.7,55.2v19.3H3748l-.5.8c.3,16.3,4.4,29.7,12.4,40.3s19.1,15.8,33.4,15.8c10.5,0,19.6-1.5,27.6-4.5a65.89,65.89,0,0,0,20.5-12.3l12.1,20.1c-6.1,5.9-14.1,10.8-24.1,14.8S3807.33,530.2,3793.33,530.2Zm-4.7-152c-10.4,0-19.2,4.4-26.5,13.1s-11.8,19.7-13.5,32.9l.3.8h78.3v-4.1c0-12.1-3.2-22.3-9.7-30.5S3801.43,378.2,3788.63,378.2Z"/><path class="cls-1" d="M3973.73,506a41.7,41.7,0,0,0,27.1-9.5c7.8-6.3,11.7-14.1,11.7-23.3h27.8l.3.9q.75,22-19.5,39t-47.3,17c-24.7,0-43.5-8.1-56.6-24.2s-19.6-36.4-19.5-60.8v-6.6c0-24.2,6.5-44.3,19.6-60.5s31.9-24.2,56.5-24.2c13.6,0,25.8,2.2,36.6,6.8a74.53,74.53,0,0,1,26.9,18.5l1.4,37.7h-24.6l-6.8-26.7a41.84,41.84,0,0,0-14.1-8.6,53.68,53.68,0,0,0-19.5-3.3c-16.2,0-27.8,5.8-34.8,17.5s-10.4,26-10.4,42.9v6.6c0,17.4,3.5,31.8,10.4,43.4S3957.43,506,3973.73,506Z"/><path class="cls-1" d="M4134.23,316.1v41h32.2V380h-32.2V483.1c0,8,1.6,13.6,5,16.8s7.7,4.9,13.1,4.9a71.22,71.22,0,0,0,9.2-.7c3.4-.5,6.2-1,8.5-1.5l4.2,21.2c-2.9,1.9-7.2,3.4-12.9,4.6a81.14,81.14,0,0,1-17,1.8q-18.9,0-30-11.4c-7.4-7.6-11.2-19.5-11.1-35.7V380h-26.8V357h26.8V316Z"/><path class="cls-1" d="M4210.43,507.1l25.6-4.4V381.4l-25.6-4.4V357h56.5V502.7l25.6,4.4v19.8h-82.1Zm56.4-193.5h-30.9V282h30.9Z"/><path class="cls-1" d="M4320.23,440.4q0-37.65,20.4-62.1t55.4-24.4c23.4,0,42,8.1,55.6,24.3s20.5,36.9,20.5,62.2v3.5c0,25.3-6.8,46.1-20.4,62.2s-32.1,24.2-55.4,24.2q-35.25,0-55.7-24.3t-20.4-62.1Zm31,3.4c0,18,3.8,32.9,11.4,44.6s18.9,17.6,33.8,17.6c14.7,0,25.8-5.9,33.4-17.6s11.4-26.6,11.5-44.6v-3.5c0-17.8-3.8-32.6-11.5-44.4s-18.9-17.7-33.8-17.7-26.1,5.9-33.6,17.7-11.3,26.6-11.3,44.4Z"/><path class="cls-1" d="M4501,507.1l25.6-4.4V381.4L4501,377V357h53.2l2.2,25.3a62,62,0,0,1,21.3-21,57.17,57.17,0,0,1,29.1-7.5c18.3,0,32.5,5.4,42.5,16.1s15.1,27.3,15.1,49.7v83L4690,507v19.8h-82.1V507.1l25.6-4.4V420.3c0-15-3-25.6-8.9-31.9s-14.9-9.4-27.1-9.4a43.67,43.67,0,0,0-23.6,6.4,47,47,0,0,0-16.4,17.6v99.7l25.6,4.4v19.8H4501Z"/><path class="cls-1" d="M4852,410.4h-23.2l-5-20.4a39.58,39.58,0,0,0-14.2-8.5,55.64,55.64,0,0,0-19.4-3.2c-11,0-19.1,2.4-24.5,7.2a22.75,22.75,0,0,0-8,17.4c0,6.7,2.4,11.9,7.1,15.9s14.3,7.4,28.7,10.4c21.5,4.6,37.4,10.9,47.9,18.8s15.7,18.5,15.7,31.7q0,22.65-18.3,36.6t-47.8,14a119.86,119.86,0,0,1-34.7-4.5,91.32,91.32,0,0,1-27.5-13l-.2-38.8h23.2l5.8,22.8c3.6,3.2,8.4,5.6,14.5,7.1a78.61,78.61,0,0,0,18.8,2.2c11,0,19.6-2.2,25.8-6.7s9.3-10.3,9.3-17.5a21,21,0,0,0-7.8-16.8c-5.2-4.4-15-8.2-29.5-11.4-20.6-4.5-36.2-10.6-46.6-18.4s-15.7-18.2-15.7-31.4c0-13.8,5.9-25.6,17.7-35.3s27.1-14.6,45.9-14.6a113.1,113.1,0,0,1,34.7,5c10.3,3.3,18.8,8,25.6,14Z"/><g id="Layer_2-2" data-name="Layer 2"><g id="Layer_1-2-2" data-name="Layer 1-2"><path class="cls-2" d="M214.26,440.34a99.35,99.35,0,0,1,56.15-52.43,213.57,213.57,0,0,1-64.56-146.49A198.06,198.06,0,0,0,27.76,371.76a99.63,99.63,0,0,0,186.56,68.45Z"/><path class="cls-3" d="M404.24,491v-.47A1.24,1.24,0,0,1,404.24,491Z"/><path class="cls-4" d="M403.54,496.56A99.31,99.31,0,0,1,396,522.2c-45.19,100.35-163.17,145-263.52,99.86s-145-163.17-99.86-263.53a99.64,99.64,0,0,0,181.69,81.82,99.3,99.3,0,0,1,56.15-52.44,213.7,213.7,0,0,0,128.5,60h0c4.24.4,8.53.66,12.85.83a198.76,198.76,0,0,1-8.27,48.21A2.66,2.66,0,0,0,403.54,496.56Z"/><path class="cls-1" d="M420,448.92q-5.55,0-10.92-.28C404.48,556.24,313.56,639.71,206,635.15S14.92,539.66,19.49,432.08A195,195,0,0,1,206,245.58c-.18-3.61-.28-7.25-.27-10.91,0-2.81.11-5.55.2-8.36C87.65,230.92-4.45,330.51.17,448.74s104.2,210.33,222.42,205.7A214.24,214.24,0,0,0,428.31,448.71C425.52,448.83,422.76,448.92,420,448.92Z"/><path class="cls-5" d="M417.25,237.59a99.33,99.33,0,0,1,52.43,56.14,213.62,213.62,0,0,1,146.48-64.56A198.06,198.06,0,0,0,485.77,51a99.63,99.63,0,0,0-68.45,186.56Z"/><path class="cls-2" d="M361.06,426.83a99,99,0,0,1-25.64-7.59c-100.35-45.19-145-163.16-99.86-263.52s163.17-145,263.53-99.86a99.64,99.64,0,0,0-81.82,181.69,99.3,99.3,0,0,1,52.42,56.15,213.63,213.63,0,0,0-59.95,128.51h0c-.41,4.25-.67,8.54-.84,12.84a198.75,198.75,0,0,1-48.2-8.26Z"/><path class="cls-1" d="M408.67,443.24c0-3.7.1-7.34.28-10.92-107.58-4.44-191.19-95.26-186.74-202.82A195,195,0,0,1,417.27,42.56C522,42.56,607.65,125.82,612,229.42q5.41-.28,10.91-.28c2.81,0,5.55.11,8.37.2-4.43-114.19-98.72-206-214.05-206-118.32,0-214.22,96-214.2,214.28,0,115,90.87,209.5,205.8,214C408.87,448.83,408.67,446,408.67,443.24Z"/><path class="cls-4" d="M419.76,646.36a99.35,99.35,0,0,1-52.43-56.15,213.25,213.25,0,0,1-146.47,64.3A198,198,0,0,0,351.22,832.93a99.62,99.62,0,0,0,68.45-186.55Z"/><path class="cls-6" d="M476,457.08a99.41,99.41,0,0,1,25.64,7.58c100.34,45.2,145,163.19,99.86,263.53S438.3,873.25,337.94,828.05h0a99.64,99.64,0,0,0,81.82-181.69,99.35,99.35,0,0,1-52.43-56.15,213.58,213.58,0,0,0,60-128.5h0c.4-4.26.66-8.55.83-12.85a198.76,198.76,0,0,1,48.21,8.27Z"/><path class="cls-1" d="M428.12,451.49a39.56,39.56,0,0,1-19.16,0,37.09,37.09,0,0,1,0-19.17,29.14,29.14,0,0,1,19.16,0A26.12,26.12,0,0,1,428.12,451.49Z"/><path class="cls-7" d="M622.69,443.42a99.31,99.31,0,0,1-56.14,52.44,213.56,213.56,0,0,1,64.59,146.48A198.06,198.06,0,0,0,809.3,512,99.63,99.63,0,0,0,622.74,443.5Z"/><path class="cls-3" d="M432.71,392.77v.48A1.93,1.93,0,0,1,432.71,392.77Z"/><path class="cls-5" d="M433.42,387.22A99.41,99.41,0,0,1,441,361.58c45.22-100.35,163.21-145,263.56-99.83S849.6,425,804.39,525.31a99.65,99.65,0,0,0-181.7-81.83,99.3,99.3,0,0,1-56.14,52.43,213.64,213.64,0,0,0-128.5-60h0c-3.35-.33-6.71-.55-10.12-.72-.91,0,0-1.66-.85-1.68,0-1.09-1.85-.61-1.72-1.71a198.4,198.4,0,0,1,8.1-44.94C433.45,387,433.44,387.09,433.42,387.22Z"/><path class="cls-1" d="M417,434.84c3.71,0,7.29.15,10.92.34,4.53-107.58,95.41-191.12,203-186.59s191.12,95.42,186.59,203A195,195,0,0,1,631,638.16q.27,5.43.27,10.92c0,2.81-.11,5.55-.2,8.36C749.3,652.83,841.41,553.24,836.79,435S732.59,224.68,614.37,229.3A214.23,214.23,0,0,0,408.65,435.05C411.44,435,414.21,434.84,417,434.84Z"/><path class="cls-1" d="M428.35,440.66c0,3.7-.09,7.33-.28,10.91C535.65,456,619.26,546.84,614.81,654.42a195,195,0,0,1-195,186.9C315,841.32,229.37,757.94,225,654.27c-3.7.18-7.07.33-10.73.33-2.81,0-5.77-.17-8.54-.28,4.41,114.28,98.71,206.28,214,206.28,118.32-.05,214.2-96,214.16-214.32,0-115-90.88-209.45-205.79-214C428.24,435.08,428.35,437.88,428.35,440.66Z"/></g></g></g></g></svg>