<svg xmlns="http://www.w3.org/2000/svg" viewBox="0 0 4857.4 881"><defs><style>.cls-1{fill:#a373f9;}.cls-2{fill:none;}.cls-3{fill:#c596fe;}.cls-4{fill:#fff;}.cls-5{fill:#7552cc;}.cls-6{fill:#ecd7ff;}.cls-7{fill:#4b39b2;}</style></defs><title>Asset 1</title><g id="Layer_2" data-name="Layer 2"><g id="Layer_1-2" data-name="Layer 1"><path d="M1085,374.1V354.2h53.2l3,24.6a59.28,59.28,0,0,1,17.8-20.4,41.87,41.87,0,0,1,24.2-7.4,63,63,0,0,1,7.5.5,38.55,38.55,0,0,1,5.9,1.2l-4.1,28.7-17.6-.9c-8.2,0-15,1.9-20.6,5.7a37.07,37.07,0,0,0-12.9,16.1v97.5l25.6,4.4V524h-82V504.2l25.6-4.4V378.6Z"/><path d="M1299.7,527.4c-23.6,0-42.5-7.9-56.4-23.6s-21-36.2-21-61.3v-6.9q0-36.3,21.6-60.4t51.1-24.1q34.2,0,51.9,20.7t17.7,55.2v19.3H1254.5l-.5.8c.3,16.3,4.4,29.7,12.4,40.3s19.1,15.8,33.4,15.8c10.5,0,19.6-1.5,27.6-4.5a65.89,65.89,0,0,0,20.5-12.3l12.1,20.1c-6.1,5.9-14.1,10.8-24.1,14.8S1313.8,527.4,1299.7,527.4Zm-4.7-152c-10.4,0-19.2,4.4-26.5,13.1s-11.8,19.7-13.5,32.9l.3.8h78.3v-4.1c0-12.1-3.2-22.3-9.7-30.5S1307.8,375.4,1295,375.4Z"/><path d="M1399.3,377.1V354.2h26.5V332.7c0-18.1,4.7-32.1,14.2-42s22.7-14.8,39.6-14.8a65.59,65.59,0,0,1,10.8.9q5.4.9,12,2.4l-3.8,23.5c-1.9-.4-4.2-.8-6.8-1.1a75.18,75.18,0,0,0-8.2-.5c-9.1,0-15.9,2.7-20.2,8.1s-6.6,13.2-6.6,23.5v21.5h35.5v22.9h-35.5V499.9l25.6,4.4v19.8h-82.1V504.3l25.6-4.4V377.1Z"/><path d="M1532.3,299.1V279.2h56.5V499.9l25.6,4.4v19.8h-82.1V504.3l25.6-4.4V303.5Z"/><path d="M1719.5,527.4c-23.6,0-42.5-7.9-56.4-23.6s-21-36.2-21-61.3v-6.9q0-36.3,21.6-60.4t51.1-24.1q34.2,0,51.9,20.7t17.7,55.2v19.3H1674.2l-.5.8c.3,16.3,4.5,29.7,12.5,40.2s19.1,15.8,33.4,15.8c10.5,0,19.6-1.5,27.6-4.5a65.89,65.89,0,0,0,20.5-12.3l12.1,20.1c-6.1,5.9-14.1,10.8-24.1,14.8S1733.6,527.3,1719.5,527.4Zm-4.7-152c-10.4,0-19.2,4.4-26.5,13.1s-11.8,19.7-13.5,32.9l.3.8h78.3v-4.1c0-12.1-3.2-22.3-9.7-30.5S1727.6,375.4,1714.8,375.4Z"/><path d="M1899.9,503.2a41.7,41.7,0,0,0,27.1-9.5c7.8-6.3,11.7-14.1,11.7-23.3h27.8l.3.9q.75,22.05-19.5,39t-47.3,17c-24.7,0-43.5-8.1-56.6-24.2s-19.6-36.4-19.5-60.8v-6.6c0-24.2,6.5-44.3,19.6-60.5S1875.4,351,1900,351c13.6,0,25.8,2.2,36.7,6.8a74.53,74.53,0,0,1,26.9,18.5L1965,414h-24.6l-6.8-26.7a41.84,41.84,0,0,0-14.1-8.6,53.68,53.68,0,0,0-19.5-3.3c-16.2,0-27.8,5.8-34.8,17.5s-10.4,26-10.4,42.9v6.6c0,17.4,3.5,31.8,10.4,43.4S1883.6,503.1,1899.9,503.2Z"/><path d="M2060.4,313.2v41h32.2v22.9h-32.2V480.2c0,8,1.6,13.6,4.9,16.8s7.7,4.9,13.1,4.9a71.22,71.22,0,0,0,9.2-.7c3.4-.5,6.2-1,8.6-1.5l4.2,21.2c-2.9,1.9-7.2,3.4-12.9,4.6a81.14,81.14,0,0,1-17,1.8q-18.9,0-30-11.4c-7.4-7.6-11.2-19.5-11.1-35.7V377.1h-26.8V354.2h26.8v-41Z"/><path d="M2136.6,504.3l25.6-4.4V378.6l-25.6-4.4v-20h56.6V499.9l25.6,4.4v19.8h-82.1Zm56.5-193.6h-31V279.1h31Z"/><path d="M2246.5,437.6q0-37.65,20.4-62.1t55.4-24.4c23.4,0,42,8.1,55.6,24.3s20.5,36.9,20.5,62.2v3.5c0,25.3-6.8,46.1-20.4,62.2s-32.1,24.2-55.4,24.2q-35.25,0-55.7-24.3t-20.4-62.1Zm30.9,3.4c0,18,3.8,32.9,11.4,44.6s18.9,17.6,33.8,17.6c14.7,0,25.8-5.9,33.4-17.6s11.4-26.6,11.5-44.6v-3.5c0-17.8-3.8-32.6-11.5-44.4s-18.9-17.7-33.8-17.7-26.1,5.9-33.6,17.7-11.3,26.6-11.3,44.4V441Z"/><path d="M2427.2,504.3l25.6-4.4V378.6l-25.6-4.4v-20h53.2l2.2,25.3a62,62,0,0,1,21.3-21A57.17,57.17,0,0,1,2533,351c18.3,0,32.5,5.4,42.5,16.1s15.1,27.3,15.1,49.7v83l25.6,4.4V524h-82.1V504.3l25.6-4.4V417.5c0-15-3-25.6-8.9-31.9s-14.9-9.4-27.1-9.4a43.67,43.67,0,0,0-23.6,6.4,47,47,0,0,0-16.4,17.6v99.7l25.6,4.4V524h-82.1Z"/><path d="M2778.2,407.6H2755l-5-20.4a42.26,42.26,0,0,0-14.2-8.6,55.64,55.64,0,0,0-19.4-3.2c-11,0-19.1,2.4-24.5,7.2a22.75,22.75,0,0,0-8,17.4c0,6.7,2.4,12,7.1,15.9s14.3,7.4,28.7,10.4q32.1,6.9,47.9,18.8c10.5,7.9,15.7,18.5,15.7,31.8q0,22.65-18.3,36.6t-47.8,14a119.86,119.86,0,0,1-34.7-4.5,91.32,91.32,0,0,1-27.5-13l-.2-38.8H2678l5.8,22.8c3.6,3.2,8.4,5.6,14.5,7.1a78.61,78.61,0,0,0,18.8,2.2c11,0,19.6-2.2,25.8-6.7s9.3-10.3,9.3-17.5a21,21,0,0,0-7.8-16.8c-5.2-4.4-15-8.2-29.4-11.5-20.6-4.5-36.2-10.6-46.6-18.4s-15.7-18.2-15.7-31.4c0-13.8,5.9-25.6,17.7-35.3s27.1-14.6,45.9-14.6a113.1,113.1,0,0,1,34.7,5c10.3,3.3,18.8,8,25.6,14Z"/><rect x="2923.7" width="39" height="881"/><path d="M3094.1,572.2l25.6-4.4V381.4l-25.6-4.4V357h52.1l2.8,20.7a56.66,56.66,0,0,1,20.6-17.7c8.1-4.1,17.5-6.1,28.2-6.1q31.5,0,49.1,25c11.7,16.7,17.5,38.7,17.5,66.2v3.3q0,36.75-17.6,59.2t-48.5,22.5c-10.5,0-19.6-1.8-27.6-5.3a54.23,54.23,0,0,1-20.2-15.6v58.6l25.6,4.4v19.9H3094Zm139.2-127.1c0-19.3-3.8-35.2-11.3-47.6s-18.7-18.5-33.6-18.5c-8.8,0-16.3,2-22.6,6a44.82,44.82,0,0,0-15.2,16.3V484a42.05,42.05,0,0,0,15.1,16.2c6.2,3.8,13.9,5.7,23,5.7,14.7,0,25.8-5.3,33.3-16s11.3-24.5,11.3-41.6Z"/><path d="M3296.2,377V357h53.2l3,24.6a59.28,59.28,0,0,1,17.8-20.4,41.87,41.87,0,0,1,24.2-7.4,63,63,0,0,1,7.5.5,38.55,38.55,0,0,1,5.9,1.2l-4.1,28.7-17.6-.9c-8.2,0-15,1.9-20.6,5.7a37.07,37.07,0,0,0-12.9,16.1v97.5l25.6,4.4v19.8h-82.1V507l25.6-4.4V381.4Z"/><path d="M3433.8,440.4q0-37.65,20.4-62.1t55.4-24.4c23.4,0,42,8.1,55.6,24.3s20.5,36.9,20.5,62.2v3.5c0,25.3-6.8,46.1-20.4,62.2s-32.1,24.2-55.4,24.2q-35.25,0-55.7-24.3t-20.4-62.1Zm30.9,3.4c0,18,3.8,32.9,11.4,44.6S3495,506,3509.9,506c14.7,0,25.8-5.9,33.4-17.6s11.4-26.6,11.5-44.6v-3.5c0-17.8-3.8-32.6-11.5-44.4s-18.9-17.7-33.8-17.7-26.1,5.9-33.6,17.7-11.3,26.6-11.3,44.4Z"/><path d="M3669.7,540.9c0,17.5-4.5,30.9-13.5,40.4s-21.5,14.2-37.5,14.2a55.79,55.79,0,0,1-9.1-.7,62.05,62.05,0,0,1-8.5-2.1l2-24.3a29.1,29.1,0,0,0,6.4,1.3,53.37,53.37,0,0,0,6.9.5q10.2,0,16.2-6.9t6-22.5V381.4L3613,377V357h56.5Zm-.9-228h-30.9V282h30.9Z"/><path d="M3793.6,530.2c-23.6,0-42.5-7.9-56.5-23.6s-21-36.2-21-61.3v-6.9q0-36.3,21.6-60.4t51.1-24.1q34.2,0,51.9,20.7t17.7,55.2v19.3H3748.3l-.5.8c.3,16.3,4.4,29.7,12.4,40.3s19.1,15.8,33.4,15.8c10.5,0,19.6-1.5,27.6-4.5a65.89,65.89,0,0,0,20.5-12.3l12.1,20.1c-6.1,5.9-14.1,10.8-24.1,14.8S3807.6,530.2,3793.6,530.2Zm-4.7-152c-10.4,0-19.2,4.4-26.5,13.1s-11.8,19.7-13.5,32.9l.3.8h78.3v-4.1c0-12.1-3.2-22.3-9.7-30.5S3801.7,378.2,3788.9,378.2Z"/><path d="M3974,506a41.7,41.7,0,0,0,27.1-9.5c7.8-6.3,11.7-14.1,11.7-23.3h27.8l.3.9q.75,22-19.5,39t-47.3,17c-24.7,0-43.5-8.1-56.6-24.2s-19.6-36.4-19.5-60.8v-6.6c0-24.2,6.5-44.3,19.6-60.5s31.9-24.2,56.5-24.2c13.6,0,25.8,2.2,36.6,6.8a74.53,74.53,0,0,1,26.9,18.5l1.4,37.7h-24.6l-6.8-26.7a41.84,41.84,0,0,0-14.1-8.6,53.68,53.68,0,0,0-19.5-3.3c-16.2,0-27.8,5.8-34.8,17.5s-10.4,26-10.4,42.9v6.6c0,17.4,3.5,31.8,10.4,43.4S3957.7,506,3974,506Z"/><path d="M4134.5,316.1v41h32.2V380h-32.2V483.1c0,8,1.6,13.6,5,16.8s7.7,4.9,13.1,4.9a71.22,71.22,0,0,0,9.2-.7c3.4-.5,6.2-1,8.5-1.5l4.2,21.2c-2.9,1.9-7.2,3.4-12.9,4.6a81.14,81.14,0,0,1-17,1.8q-18.9,0-30-11.4c-7.4-7.6-11.2-19.5-11.1-35.7V380h-26.8V357h26.8V316Z"/><path d="M4210.7,507.1l25.6-4.4V381.4l-25.6-4.4V357h56.5V502.7l25.6,4.4v19.8h-82.1Zm56.4-193.5h-30.9V282h30.9Z"/><path d="M4320.5,440.4q0-37.65,20.4-62.1t55.4-24.4c23.4,0,42,8.1,55.6,24.3s20.5,36.9,20.5,62.2v3.5c0,25.3-6.8,46.1-20.4,62.2s-32.1,24.2-55.4,24.2q-35.25,0-55.7-24.3t-20.4-62.1Zm31,3.4c0,18,3.8,32.9,11.4,44.6s18.9,17.6,33.8,17.6c14.7,0,25.8-5.9,33.4-17.6s11.4-26.6,11.5-44.6v-3.5c0-17.8-3.8-32.6-11.5-44.4s-18.9-17.7-33.8-17.7-26.1,5.9-33.6,17.7-11.3,26.6-11.3,44.4Z"/><path d="M4501.3,507.1l25.6-4.4V381.4l-25.6-4.4V357h53.2l2.2,25.3a62,62,0,0,1,21.3-21,57.17,57.17,0,0,1,29.1-7.5c18.3,0,32.5,5.4,42.5,16.1s15.1,27.3,15.1,49.7v83l25.6,4.4v19.8h-82.1V507.1l25.6-4.4V420.3c0-15-3-25.6-8.9-31.9s-14.9-9.4-27.1-9.4a43.67,43.67,0,0,0-23.6,6.4,47,47,0,0,0-16.4,17.6v99.7l25.6,4.4v19.8h-82.1Z"/><path d="M4852.3,410.4h-23.2l-5-20.4a39.58,39.58,0,0,0-14.2-8.5,55.64,55.64,0,0,0-19.4-3.2c-11,0-19.1,2.4-24.5,7.2a22.75,22.75,0,0,0-8,17.4c0,6.7,2.4,11.9,7.1,15.9s14.3,7.4,28.7,10.4c21.5,4.6,37.4,10.9,47.9,18.8s15.7,18.5,15.7,31.7q0,22.65-18.3,36.6t-47.8,14a119.86,119.86,0,0,1-34.7-4.5,91.32,91.32,0,0,1-27.5-13l-.2-38.8h23.2l5.8,22.8c3.6,3.2,8.4,5.6,14.5,7.1a78.61,78.61,0,0,0,18.8,2.2c11,0,19.6-2.2,25.8-6.7s9.3-10.3,9.3-17.5a21,21,0,0,0-7.8-16.8c-5.2-4.4-15-8.2-29.5-11.4-20.6-4.5-36.2-10.6-46.6-18.4s-15.7-18.2-15.7-31.4c0-13.8,5.9-25.6,17.7-35.3s27.1-14.6,45.9-14.6a113.1,113.1,0,0,1,34.7,5c10.3,3.3,18.8,8,25.6,14Z"/><g id="Layer_2-2" data-name="Layer 2"><g id="Layer_1-2-2" data-name="Layer 1-2"><path class="cls-1" d="M214.29,438.79a99.37,99.37,0,0,1,56-52.43,213.54,213.54,0,0,1-64.46-146.43,198,198,0,0,0-178,130.28,99.59,99.59,0,0,0,186.4,68.45Z"/><path class="cls-2" d="M404.21,489.41V489A1.77,1.77,0,0,1,404.21,489.41Z"/><path class="cls-3" d="M403.49,495a98.52,98.52,0,0,1-7.58,25.64c-46,99.94-164.36,143.64-264.29,97.61C32.87,572.75-11.18,456.49,32.63,357a99.63,99.63,0,0,0,181.66,81.8,99.37,99.37,0,0,1,56-52.43,213.4,213.4,0,0,0,128.53,59.95h0c4.25.42,8.54.69,12.85.85a197.48,197.48,0,0,1-8.27,48.18A1.35,1.35,0,0,0,403.49,495Z"/><path class="cls-4" d="M419.93,447.36c-3.69,0-7.35,0-10.9-.26-4.58,107.54-95.47,191-203,186.44s-191-95.47-186.44-203A194.9,194.9,0,0,1,206,244.09c-.2-3.63-.29-7.25-.29-10.91,0-2.8,0-5.54.19-8.37C87.67,229.41-4.44,329,.17,447.19S104.33,657.52,222.55,652.91A214.2,214.2,0,0,0,428.27,447.16C425.47,447.26,422.73,447.36,419.93,447.36Z"/><path class="cls-5" d="M417.2,236.08a99.27,99.27,0,0,1,52.43,56,213.48,213.48,0,0,1,146.43-64.56,198,198,0,0,0-130.35-178,99.59,99.59,0,0,0-68.41,186.5Z"/><path class="cls-1" d="M361,425.28a99.41,99.41,0,0,1-25.64-7.58C234.71,373.36,189,255.78,233.36,155.09S395.27,8.71,496,53.05L499,54.42a99.61,99.61,0,1,0-81.8,181.66,99.38,99.38,0,0,1,52.4,56,213.71,213.71,0,0,0-59.95,128.53h0c-.39,4.25-.65,8.54-.82,12.86a198.05,198.05,0,0,1-48.18-8.28Z"/><path class="cls-4" d="M408.73,441.69c0-3.69,0-7.35.3-10.91-107.55-4.57-191-95.46-186.46-203s95.46-191,203-186.45A194.89,194.89,0,0,1,612,227.94c3.63-.2,7.25-.27,10.91-.27,2.84,0,5.57,0,8.37.2C626.82,109.65,527.33,17.46,409.11,22s-210.41,104-205.92,222.2a214.22,214.22,0,0,0,205.54,205.9Z"/><path class="cls-3" d="M419.74,644.73a99.32,99.32,0,0,1-52.44-56,213.21,213.21,0,0,1-146.42,64.2A197.74,197.74,0,0,0,351.19,831.27a99.6,99.6,0,0,0,68.45-186.54Z"/><path class="cls-6" d="M475.93,455.53a99.12,99.12,0,0,1,25.6,7.58c100.7,44.34,146.38,161.92,102,262.61S441.66,872.11,341,827.77c-1-.45-2-.91-3-1.38h0a99.63,99.63,0,0,0,81.83-181.66,99.32,99.32,0,0,1-52.44-56,213.55,213.55,0,0,0,60-128.53h0c.42-4.25.65-8.54.85-12.85a197.48,197.48,0,0,1,48.18,8.27Z"/><path class="cls-4" d="M428.07,449.93a39.24,39.24,0,0,1-19.14,0,36.8,36.8,0,0,1,0-19.15,29,29,0,0,1,19.14,0A26,26,0,0,1,428.07,449.93Z"/><path class="cls-7" d="M622.61,441.89a99.35,99.35,0,0,1-56,52.4,213.46,213.46,0,0,1,64.56,146.46,198,198,0,0,0,178-130.38A99.59,99.59,0,0,0,622.61,442Z"/><path class="cls-2" d="M432.65,391.24v.49A4,4,0,0,1,432.65,391.24Z"/><path class="cls-5" d="M433.38,385.7A99.41,99.41,0,0,1,441,360.06C485.23,259.33,602.78,213.57,703.5,257.84S850,419.66,805.72,520.39c-.5,1.12-1,2.25-1.52,3.36a99.63,99.63,0,0,0-181.62-81.83,99.48,99.48,0,0,1-56,52.44A213.46,213.46,0,0,0,438,434.41h0c-3.3-.33-6.59-.56-10.12-.73-.89,0,0-1.68-.86-1.68,0-1.08-1.84-.62-1.71-1.71a197.59,197.59,0,0,1,8.11-44.92A1.3,1.3,0,0,0,433.38,385.7Z"/><path class="cls-4" d="M417,433.29c3.69,0,7.28,0,10.91.33,4.54-107.55,95.4-191,203-186.51s191,95.4,186.51,202.94A194.91,194.91,0,0,1,630.92,636.56c.16,3.63.26,7.25.26,10.91,0,2.8,0,5.54-.2,8.37,118.23-4.53,210.39-104,205.86-222.26S732.8,223.2,614.58,227.73A214.21,214.21,0,0,0,408.73,433.49C411.4,433.42,414.17,433.29,417,433.29Z"/><path class="cls-4" d="M428.3,439.12c0,3.69,0,7.35-.26,10.91,107.54,4.58,191,95.48,186.42,203s-95.48,191-203,186.42A194.9,194.9,0,0,1,225,652.68c-3.69.16-7.05.33-10.71.33a81.43,81.43,0,0,1-8.57-.3c4.36,118.23,103.75,210.53,222,206.16s210.53-103.74,206.17-222A214.22,214.22,0,0,0,428.07,430.75C428.21,433.55,428.3,436.32,428.3,439.12Z"/></g></g></g></g></svg>