<svg xmlns="http://www.w3.org/2000/svg" xmlns:xlink="http://www.w3.org/1999/xlink" viewBox="0 0 367.26 367.26"><defs><style>.cls-1{fill:#fff;}.cls-2{clip-path:url(#clip-path);}.cls-3{fill:#a273f8;}.cls-4{fill:none;}.cls-5{fill:#c495fd;}.cls-6{fill:#7552cb;}.cls-7{fill:#ebd6ff;}.cls-8{fill:#4b39b1;}</style><clipPath id="clip-path"><circle class="cls-1" cx="183.63" cy="183.63" r="183.63"/></clipPath></defs><title>Asset 1</title><g id="Layer_2" data-name="Layer 2"><g id="Layer_1-2" data-name="Layer 1"><circle class="cls-1" cx="183.63" cy="183.63" r="183.63"/><g class="cls-2"><g id="Layer_2-2" data-name="Layer 2"><g id="Layer_1-2-2" data-name="Layer 1-2"><path class="cls-3" d="M111.28,183.05a35.39,35.39,0,0,1,19.94-18.66,76,76,0,0,1-22.94-52.13,70.48,70.48,0,0,0-63.35,46.38A35.45,35.45,0,0,0,111.28,183Z"/><path class="cls-4" d="M178.15,201.07v-.16A.43.43,0,0,1,178.15,201.07Z"/><path class="cls-5" d="M178.28,203.05a34.89,34.89,0,0,1-2.69,9.13A70.92,70.92,0,0,1,46.27,153.93a35.46,35.46,0,0,0,64.66,29.12,35.37,35.37,0,0,1,19.95-18.66,76,76,0,0,0,45.75,21.34h0c1.51.15,3,.24,4.58.3a70.28,70.28,0,0,1-3,17.15A.27.27,0,0,0,178.28,203.05Z"/><path class="cls-1" d="M184.14,186.1c-1.32,0-2.62,0-3.88-.09A69.38,69.38,0,1,1,108,113.74c-.07-1.29-.11-2.58-.11-3.88,0-1,0-2,.07-3A76.26,76.26,0,1,0,187.11,186C186.11,186.07,185.14,186.1,184.14,186.1Z"/><path class="cls-6" d="M183.17,110.87a35.32,35.32,0,0,1,18.66,19.94,76,76,0,0,1,52.12-23,70.48,70.48,0,0,0-46.39-63.35,35.45,35.45,0,0,0-24.36,66.39Z"/><path class="cls-3" d="M163.17,178.24a35,35,0,0,1-9.12-2.7A70.92,70.92,0,1,1,211.21,45.73l1.09.49a35.46,35.46,0,1,0-29.12,64.67,35.4,35.4,0,0,1,18.65,19.94,76.07,76.07,0,0,0-21.34,45.76h0c-.14,1.51-.23,3-.29,4.57a70.27,70.27,0,0,1-17.15-2.94Z"/><path class="cls-1" d="M180.5,184.08c0-1.31,0-2.61.1-3.88A69.38,69.38,0,1,1,252.87,108c1.29-.07,2.58-.09,3.88-.09,1,0,2,0,3,.07a76.25,76.25,0,1,0-79.23,79.09Z"/><path class="cls-5" d="M184.07,256.34A35.37,35.37,0,0,1,165.4,236.4a75.89,75.89,0,0,1-52.12,22.85,70.39,70.39,0,0,0,46.39,63.49A35.45,35.45,0,0,0,184,256.34Z"/><path class="cls-7" d="M204.07,189a35.45,35.45,0,0,1,9.12,2.7A70.92,70.92,0,0,1,156,321.52l-1.09-.49h0a35.47,35.47,0,0,0,29.13-64.67,35.37,35.37,0,0,1-18.67-19.94,76,76,0,0,0,21.37-45.75h0c.15-1.52.23-3,.3-4.58A70.28,70.28,0,0,1,204.22,189Z"/><path class="cls-1" d="M187,187a14.05,14.05,0,0,1-6.82,0,13.15,13.15,0,0,1,0-6.82,10.36,10.36,0,0,1,6.82,0A9.34,9.34,0,0,1,187,187Z"/><path class="cls-8" d="M256.75,184.15a35.35,35.35,0,0,1-19.94,18.66,76,76,0,0,1,23,52.13,70.46,70.46,0,0,0,63.35-46.41,35.45,35.45,0,0,0-66.39-24.35Z"/><path class="cls-4" d="M188.71,166.12v.18A.54.54,0,0,1,188.71,166.12Z"/><path class="cls-6" d="M188.93,164.15a35.5,35.5,0,0,1,2.69-9.13A70.92,70.92,0,0,1,321.47,212.1l-.54,1.2a35.46,35.46,0,0,0-64.65-29.13,35.4,35.4,0,0,1-19.95,18.66,76,76,0,0,0-45.75-21.34h0c-1.17-.12-2.35-.2-3.6-.26-.32,0,0-.59-.31-.59,0-.39-.65-.23-.61-.61A71.31,71.31,0,0,1,189,164,.71.71,0,0,0,188.93,164.15Z"/><path class="cls-1" d="M183.09,181.09c1.32,0,2.6,0,3.89.12a69.38,69.38,0,1,1,72.27,72.24c.05,1.29.09,2.59.09,3.89,0,1,0,2-.07,3a76.26,76.26,0,1,0-79.12-79.16C181.1,181.14,182.09,181.09,183.09,181.09Z"/><path class="cls-1" d="M187.12,183.17c0,1.31,0,2.62-.1,3.88a69.38,69.38,0,1,1-72.27,72.14c-1.32.06-2.52.12-3.82.12a28.17,28.17,0,0,1-3.05-.11,76.26,76.26,0,1,0,79.16-79C187.08,181.19,187.12,182.17,187.12,183.17Z"/></g></g></g></g></g></svg>